{"title":"Indiana Jones and the Temple of Doom(1984)MP-4[DaScubaDude]","uid":12964510,"size":1182026231,"categoryP":"video","categoryS":"movies","magnet":"?xt=urn:btih:3c17676295de9e4d8111ff98a573396e7a062c67&amp;dn=Indiana+Jones+and+the+Temple+of+Doom%281984%29MP-4%5BDaScubaDude%5D&amp;tr=udp%3A%2F%2Ftracker.leechers-paradise.org%3A6969&amp;tr=udp%3A%2F%2Fzer0day.ch%3A1337&amp;tr=udp%3A%2F%2Fopen.demonii.com%3A1337&amp;tr=udp%3A%2F%2Ftracker.coppersurfer.tk%3A6969&amp;tr=udp%3A%2F%2Fexodus.desync.com%3A6969","seeders":1,"leechers":0,"uploader":"dascuba","files":1,"time":1449879400,"description":"Indiana Jones and the Temple of Doom\r\nPG | 1h 58min | Action, Adventure | 23 May 1984 (USA)\r\n Indiana Jones and the Temple of Doom Poster\r\nAfter arriving in India, Indiana Jones is asked by a desperate village to find a mystical stone. He agrees, and stumbles upon a secret cult plotting a terrible plan in the catacombs of an ancient palace.\r\nDirector: Steven Spielberg\r\nWriters: Willard Huyck (screenplay), Gloria Katz (screenplay) | 1 more credit »\r\nStars: Harrison Ford, Kate Capshaw, Jonathan Ke Quan\r\n\r\nGeneral\r\nComplete name                            :Indiana Jones and the Temple of DoomINDIANA_JONES_TEMPLE_DOOM_Title1.mp4\r\nFormat                                   : MPEG-4\r\nFormat profile                           : Base Media\r\nCodec ID                                 : isom\r\nFile size                                : 1.10 GiB\r\nDuration                                 : 1h 58mn\r\nOverall bit rate                         : 1 332 Kbps\r\nMovie name                               : INDIANA_JONES_TEMPLE_DOOM\r\nGenre                                    : Action\r\nWriting application                      : Lavf54.6.100\r\n\r\nVideo\r\nID                                       : 1\r\nFormat                                   : AVC\r\nFormat/Info                              : Advanced Video Codec\r\nFormat profile                           :   \r\nFormat settings, CABAC                   : No\r\nFormat settings, ReFrames                : 6 frames\r\nFormat settings, GOP                     : M=1, N=60\r\nCodec ID                                 : avc1\r\nCodec ID/Info                            : Advanced Video Coding\r\nDuration                                 : 1h 58mn\r\nBit rate                                 : 1 197 Kbps\r\nWidth                                    : 720 pixels\r\nHeight                                   : 404 pixels\r\nDisplay aspect ratio                     : 16:9\r\nFrame rate mode                          : Constant\r\nFrame rate                               : 29.970 fps\r\nColor space                              : YUV\r\nChroma subsampling                       : 4:2:0\r\nBit depth                                : 8 bits\r\nScan type                                : Progressive\r\nBits/(Pixel*Frame)                       : 0.137\r\nStream size                              : 1 013 MiB (90%)\r\n\r\nAudio\r\nID                                       : 2\r\nFormat                                   : AAC\r\nFormat/Info                              : Advanced Audio Codec\r\nFormat profile                           : LC\r\nCodec ID                                 : 40\r\nDuration                                 : 1h 58mn\r\nBit rate mode                            : Constant\r\nBit rate                                 : 128 Kbps\r\nChannel(s)                               : 2 channels\r\nChannel positions                        : Front: L R\r\nSampling rate                            : 44.1 KHz\r\nCompression mode                         : Lossy\r\nStream size                              : 108 MiB (10%)","torrent":{"xt":"urn:btih:3c17676295de9e4d8111ff98a573396e7a062c67","amp;dn":"Indiana+Jones+and+the+Temple+of+Doom%281984%29MP-4%5BDaScubaDude%5D","amp;tr":["udp%3A%2F%2Ftracker.leechers-paradise.org%3A6969","udp%3A%2F%2Fzer0day.ch%3A1337","udp%3A%2F%2Fopen.demonii.com%3A1337","udp%3A%2F%2Ftracker.coppersurfer.tk%3A6969","udp%3A%2F%2Fexodus.desync.com%3A6969"],"infoHash":"3c17676295de9e4d8111ff98a573396e7a062c67","infoHashBuffer":{"type":"Buffer","data":[60,23,103,98,149,222,158,77,129,17,255,152,165,115,57,110,122,6,44,103]},"announce":[],"urlList":[]}}